<?xml version="1.0" encoding="UTF-8"?>
<svg id="_图层_2" data-name="图层 2" xmlns="http://www.w3.org/2000/svg" viewBox="0 0 752.54 752.54">
  <defs>
    <style>
      .cls-1 {
        font-family: LiSu, LiSu;
        font-size: 60px;
      }

      .cls-1, .cls-2, .cls-3 {
        stroke: #00cd00;
        stroke-miterlimit: 10;
      }

      .cls-1, .cls-4 {
        fill: #00cd00;
      }

      .cls-5, .cls-2 {
        fill: #fff;
      }

      .cls-2 {
        stroke-width: 5px;
      }

      .cls-6 {
        fill: #c5ffbd;
      }

      .cls-3 {
        fill: none;
        stroke-linecap: round;
        stroke-width: 8px;
      }
    </style>
  </defs>
  <g id="_图层_1-2" data-name="图层 1">
    <g>
      <circle class="cls-5" cx="376.27" cy="376.27" r="376.27"/>
      <g>
        <g>
          <path class="cls-6" d="M451.09,328.4c-13.38,0-26.91-8.39-37.12-23.04-2.35-3.37-4.56-6.59-6.65-9.64-14.01-20.46-23.27-33.98-36.58-33.98-11.07,0-23.27,9.7-42.09,33.47-11.98,15.13-24.16,22.8-36.21,22.8-19.57,0-33.54-20.37-35.22-22.92-1.68-4.12-15.62-36.34-39.68-36.34-13.87,0-27.85,10.83-41.55,32.2-15.5,24.17-34.75,27.78-44.85,27.78-8.38,0-14.64-2.47-17.71-4.78-9.65-7.28-12.54-20.56-6.89-31.59l84.49-164.67c4.37-8.52,13.04-13.82,22.62-13.82h323.23c9.58,0,18.25,5.29,22.62,13.82l83.72,163.17.05.08c6.53,11.38,7.3,22.03,2.22,30.8-5.62,9.7-18.1,15.96-31.81,15.96-17.42,0-32.28-9.37-40.75-25.71-13.66-26.34-27.94-39.7-42.45-39.7-13.66,0-26.2,11.23-38.33,34.32-10.77,20.5-25.36,31.8-41.08,31.8Z"/>
          <path class="cls-4" d="M536.91,107.86c8.07,0,15.38,4.46,19.06,11.64l83.68,163.09.09.17.09.16c5.78,10.07,6.55,19.34,2.23,26.81-4.91,8.48-16.04,13.97-28.35,13.97-7.51,0-26.18-2.3-37.2-23.55-14.6-28.16-29.65-41.86-46-41.86h0c-15.29,0-28.98,11.93-41.87,36.46-10.05,19.13-23.38,29.66-37.54,29.66-12.05,0-24.39-7.77-33.84-21.32-2.33-3.35-4.52-6.53-6.62-9.61-14.73-21.51-24.47-35.72-39.88-35.73-12.61,0-25.29,9.81-45.22,34.99-11.18,14.12-22.3,21.28-33.07,21.28-16.93,0-29.57-17.68-31.67-20.81-2.42-5.77-17.28-38.45-43.23-38.46h0c-15.32,0-30.43,11.45-44.92,34.04-14.47,22.57-32.2,25.94-41.48,25.94-7.4,0-12.86-2.14-15.3-3.98-8.09-6.11-10.51-17.28-5.74-26.57l84.49-164.67c3.69-7.18,10.99-11.64,19.06-11.64h323.23M536.91,99.86H213.67c-11.04,0-21.14,6.17-26.18,15.99l-84.49,164.67c-6.44,12.55-3.22,28.11,8.04,36.6,4.23,3.19,11.49,5.59,20.11,5.59,14.87,0,33.79-7.13,48.21-29.62,14.54-22.67,27.41-30.36,38.18-30.36,22.72,0,36.11,34.19,36.11,34.19,0,0,15.46,25.08,38.79,25.08,11.5,0,24.92-6.1,39.34-24.31,17.86-22.56,29.32-31.96,38.95-31.96,12.95,0,22.58,17.02,39.94,41.91,11.04,15.82,25.61,24.75,40.4,24.75,16.01,0,32.28-10.45,44.62-33.94,11.87-22.59,23.57-32.18,34.79-32.18,13.88,0,27.04,14.67,38.9,37.54,10.17,19.61,27.84,27.87,44.3,27.87,26.93,0,50.65-22.1,33.06-52.75l-83.68-163.09c-5.04-9.82-15.14-15.99-26.18-15.99h0Z"/>
        </g>
        <rect class="cls-2" x="502" y="448.59" width="10.72" height="195.57"/>
        <path class="cls-2" d="M541.06,423.69c0,24.32-15.09,44.04-33.7,44.04s-33.7-19.72-33.7-44.04,15.09-65.49,33.7-65.49,33.7,41.17,33.7,65.49Z"/>
        <g>
          <path class="cls-2" d="M575.55,645.45h-18.38l4.15-287.11c0-5.08-.03-9.32,5.04-9.32h0c5.08,0,4.66,3.99,4.66,9.06l4.53,287.36Z"/>
          <path class="cls-2" d="M603.08,645.45h-18.38l4.15-287.11c0-5.08-.03-9.32,5.04-9.32h0c5.08,0,4.66,3.99,4.66,9.06l4.53,287.36Z"/>
        </g>
        <path class="cls-3" d="M180.96,327.45v264.27c0,9.01,7.3,16.31,16.31,16.31h274.66"/>
        <circle class="cls-3" cx="297.11" cy="423.38" r="47.11"/>
        <text class="cls-1" transform="translate(267.85 443.41)"><tspan x="0" y="0">饭</tspan></text>
      </g>
    </g>
  </g>
</svg>