<?xml version="1.0" standalone="no"?><!DOCTYPE svg PUBLIC "-//W3C//DTD SVG 1.1//EN" "http://www.w3.org/Graphics/SVG/1.1/DTD/svg11.dtd"><svg t="1742531127938" class="icon" viewBox="0 0 1024 1024" version="1.1" xmlns="http://www.w3.org/2000/svg" p-id="5654" xmlns:xlink="http://www.w3.org/1999/xlink" width="200" height="200"><path d="M490.304 83.84a64 64 0 0 1 85.312 30.208l96.448 202.56 222.144 28.992a64 64 0 0 1 30.656 12.672l6.336 5.504a64 64 0 0 1 0 90.56l-160.384 160.32 38.784 222.976a64 64 0 0 1-3.136 33.408l-3.52 7.808a64 64 0 0 1-86.656 26.112L518.144 798.72l-204.736 107.264a64 64 0 0 1-32.32 7.232l-8.32-0.896a64 64 0 0 1-52.096-73.984l38.848-223.616L99.2 454.336a64 64 0 0 1-16.576-28.736l-1.6-8.32a64 64 0 0 1 55.168-71.68l222.528-29.056 101.888-203.584a64 64 0 0 1 22.272-24.96l7.424-4.224z m27.264 86.912l-99.2 198.4-9.152 18.304-20.224 2.624-217.152 28.288 156.16 156.096 14.08 14.08-3.456 19.648-37.888 217.664 199.872-104.64 17.984-9.472 17.92 9.6 192.96 103.488-37.76-216.64-3.328-19.648 14.08-14.08 156.032-156.096-217.088-28.288-20.672-2.688-8.96-18.88-94.208-197.76z" p-id="5655" fill="#1296db"></path></svg>