<?xml version="1.0" standalone="no"?><!DOCTYPE svg PUBLIC "-//W3C//DTD SVG 1.1//EN" "http://www.w3.org/Graphics/SVG/1.1/DTD/svg11.dtd"><svg t="1742531145226" class="icon" viewBox="0 0 1024 1024" version="1.1" xmlns="http://www.w3.org/2000/svg" p-id="6030" xmlns:xlink="http://www.w3.org/1999/xlink" width="200" height="200"><path d="M512 179.541333l81.3056 164.727467a102.4 102.4 0 0 0 77.141333 56.046933l181.794134 26.4192-131.584 128.238934a102.4 102.4 0 0 0-29.422934 90.624l31.061334 181.111466-162.645334-85.504a102.4 102.4 0 0 0-95.300266 0L301.704533 826.709333l31.061334-181.111466a102.4 102.4 0 0 0-29.422934-90.624l-131.584-128.238934 181.828267-26.4192a102.4 102.4 0 0 0 77.1072-56.046933L512 179.541333z m30.6176-92.2624a34.133333 34.133333 0 0 0-61.2352 0l-111.9232 226.781867a34.133333 34.133333 0 0 1-25.7024 18.670933L93.525333 369.117867a34.133333 34.133333 0 0 0-18.909866 58.231466l181.111466 176.503467a34.133333 34.133333 0 0 1 9.796267 30.208L222.754133 883.370667a34.133333 34.133333 0 0 0 49.493334 35.976533l223.880533-117.691733a34.133333 34.133333 0 0 1 31.744 0l223.8464 117.691733a34.133333 34.133333 0 0 0 49.527467-35.976533l-42.734934-249.275734a34.133333 34.133333 0 0 1 9.796267-30.208l181.111467-176.503466a34.133333 34.133333 0 0 0-18.909867-58.231467l-250.2656-36.386133a34.133333 34.133333 0 0 1-25.7024-18.670934l-111.957333-226.781866z" fill="#202425" p-id="6031"></path></svg>