<?xml version="1.0" standalone="no"?><!DOCTYPE svg PUBLIC "-//W3C//DTD SVG 1.1//EN" "http://www.w3.org/Graphics/SVG/1.1/DTD/svg11.dtd"><svg t="1742533522151" class="icon" viewBox="0 0 1310 1024" version="1.1" xmlns="http://www.w3.org/2000/svg" p-id="36418" xmlns:xlink="http://www.w3.org/1999/xlink" width="255.859375" height="200"><path d="M265.261 896.753h587.64a150.588 150.588 0 0 0 140.033-95.172c44.935-113.543 72.282-180.676 82.07-201.381 12.243-25.962 29.877-54.754 52.917-86.408h132.518v71.273l-116.842 32.151-107.068 295.5-126.825 76.694H361.367l-96.106-92.642z" fill="#0449a5" p-id="36419"></path><path d="M430.562 5.572a30.118 30.118 0 0 1 36.834 47.586l-3.193 2.47-3.313 2.815a129.792 129.792 0 0 0-17.257 18.643c-24.712 32.587-31.172 70.009-8.674 115.23l2.199 4.262c38.264 71.966 40.779 128.903 18.989 169.592-5.602 10.496-11.746 17.815-16.956 22.257a30.118 30.118 0 0 1-39.108-45.824l0.949-1.43 1.25-2.063 0.767-1.356c11.43-21.353 10.286-55.687-16.489-107.941l-2.59-4.97c-37-69.571-27.09-133.075 11.67-184.17 12.695-16.73 25.525-28.43 34.937-35.116z m168.538 0a30.118 30.118 0 0 1 36.834 47.586l-3.192 2.47-3.313 2.815a129.807 129.807 0 0 0-17.258 18.643c-24.711 32.587-31.156 70.009-8.659 115.23l2.184 4.262c38.28 71.966 40.78 128.903 19.004 169.592-5.617 10.496-11.76 17.815-16.971 22.257a30.118 30.118 0 0 1-39.108-45.824l1.536-2.349 1.43-2.515c11.43-21.338 10.286-55.672-16.489-107.926l-2.575-4.97c-37.014-69.571-27.106-133.075 11.656-184.17 12.725-16.73 25.525-28.415 34.936-35.101z m168.539 0a30.118 30.118 0 0 1 36.833 47.586l-3.192 2.47-3.313 2.815a129.807 129.807 0 0 0-17.257 18.643c-24.712 32.587-31.157 70.009-8.66 115.23l2.184 4.262c38.28 71.966 40.78 128.903 19.005 169.592-5.617 10.496-11.761 17.815-16.972 22.257a30.118 30.118 0 0 1-39.107-45.824l1.536-2.349 1.43-2.515c11.43-21.338 10.285-55.672-16.49-107.926l-2.574-4.97c-37.015-69.571-27.106-133.075 11.655-184.17 12.71-16.73 25.525-28.43 34.937-35.116z m478.614 452.216H42.978C18.944 457.788 0 477.606 0 501.353v81.499c0 23.763 18.944 43.55 42.978 43.55h58.609c2.77 0 5.526 1.732 7.123 4.774l98.68 235.535c32.196 88.606 115.125 148.36 208.023 148.36h458.39c92.898 0 175.827-59.77 208.55-149.7l97.009-231.47c1.958-5.225 5.09-7.5 8.282-7.5h58.61c24.033 0 42.962-19.786 42.962-43.55v-81.498c0-23.747-18.929-43.535-42.963-43.535z m-17.272 60.236v48.112h-41.337c-28.852 0-54.392 18.417-64.361 45.81l-97.01 231.469c-24.696 67.78-85.232 111.405-152.47 111.405h-458.39c-67.238 0-127.774-43.626-151.944-110.065l-98.063-234.15-1.16-2.966a68.277 68.277 0 0 0-62.66-41.487l-41.35-0.016v-48.112H1228.98z" fill="#0449a5" p-id="36420"></path><path d="M1175.416 115.682c-77.281 34.018-137.05 93.545-181.609 170.752-24.847 43.068-43.415 88.952-56.711 134.837l-2.862 10.089-2.514 9.487-2.214 8.855-0.994 4.201-1.777 7.876-1.506 7.168-1.205 6.43-0.963 5.647-5.421 37.015h142.426l7.318-19.577c43.4-115.908 118.905-198.325 189.305-237.809 25.54-14.336 44.333-38.069 50.899-66.078 9.743-41.517-9.743-74.812-45.327-87.175l-3.193-1.04c-25.78-7.86-55.326-3.162-83.652 9.322z m66.094 48.294c7.966 2.44 10.044 5.797 7.439 16.835-2.575 11.008-10.481 20.992-21.73 27.302l-5.15 2.951c-75.49 44.078-152.893 127.488-201.533 242.357l-1.837 4.367h-29.093l1.445-5.602c1.205-4.593 2.5-9.306 3.916-14.155 12.017-41.502 28.822-82.99 51.034-121.495 38.596-66.89 89.299-117.383 153.705-145.724 16.354-7.198 32.271-9.743 41.819-6.836z" fill="#0449a5" p-id="36421"></path></svg>