<?xml version="1.0" standalone="no"?><!DOCTYPE svg PUBLIC "-//W3C//DTD SVG 1.1//EN" "http://www.w3.org/Graphics/SVG/1.1/DTD/svg11.dtd"><svg t="1742533308115" class="icon" viewBox="0 0 1024 1024" version="1.1" xmlns="http://www.w3.org/2000/svg" p-id="25640" xmlns:xlink="http://www.w3.org/1999/xlink" width="200" height="200"><path d="M804.460606 110.80404h-123.474747V80.032323c0-17.066667-13.834343-30.90101-30.901011-30.90101-16.937374 0-30.771717 13.834343-30.771717 30.90101v30.90101H403.264646V80.032323c0-17.066667-13.834343-30.90101-30.90101-30.90101s-30.90101 13.834343-30.90101 30.90101v30.90101H217.987879C166.917172 110.80404 125.414141 152.307071 125.414141 203.507071v679.046464c0 51.2 41.373737 92.573737 92.573738 92.573738h586.472727c51.070707 0 92.573737-41.50303 92.573737-92.573738V203.507071c0-51.2-41.373737-92.70303-92.573737-92.703031z m30.90101 771.749495c0 17.066667-13.834343 30.90101-30.771717 30.90101H217.987879c-17.066667 0-30.771717-13.834343-30.771717-30.90101V203.507071c0-17.066667 13.834343-30.90101 30.771717-30.90101h123.474747v30.90101c0 17.066667 13.834343 30.90101 30.90101 30.90101s30.90101-13.834343 30.90101-30.90101v-30.90101H619.313131v30.90101c0 17.066667 13.834343 30.90101 30.90101 30.90101s30.90101-13.834343 30.901011-30.90101v-30.90101h123.474747c17.066667 0 30.771717 13.834343 30.771717 30.90101v679.046464z m0 0" p-id="25641" fill="#0449a5"></path><path d="M742.787879 373.268687H279.789899c-17.066667 0-30.90101 13.834343-30.90101 30.90101s13.834343 30.90101 30.90101 30.90101h462.99798c17.066667 0 30.90101-13.834343 30.90101-30.90101-0.129293-17.066667-13.963636-30.90101-30.90101-30.90101z m0 0M742.787879 527.515152H279.789899c-17.066667 0-30.90101 13.834343-30.90101 30.90101s13.834343 30.90101 30.90101 30.90101h462.99798c17.066667 0 30.90101-13.834343 30.90101-30.90101-0.129293-17.066667-13.963636-30.90101-30.90101-30.90101z m0 0M742.787879 681.890909H279.789899c-17.066667 0-30.90101 13.834343-30.90101 30.90101s13.834343 30.90101 30.90101 30.90101h462.99798c17.066667 0 30.90101-13.834343 30.90101-30.90101-0.129293-17.066667-13.963636-30.90101-30.90101-30.90101z m0 0" p-id="25642" fill="#0449a5"></path></svg>