<?xml version="1.0" standalone="no"?><!DOCTYPE svg PUBLIC "-//W3C//DTD SVG 1.1//EN" "http://www.w3.org/Graphics/SVG/1.1/DTD/svg11.dtd"><svg t="1742533649719" class="icon" viewBox="0 0 1024 1024" version="1.1" xmlns="http://www.w3.org/2000/svg" p-id="38596" xmlns:xlink="http://www.w3.org/1999/xlink" width="200" height="200"><path d="M899.84 309.461333h-115.456v506.282667c0 15.701333-7.168 45.781333-19.541333 55.466667l-19.072 19.157333h149.802666c21.461333 0 43.093333-24.746667 43.093334-46.208V348.373333a38.698667 38.698667 0 0 0-38.826667-38.912zM643.072 85.333333h-473.6A84.394667 84.394667 0 0 0 85.333333 169.429333v642.858667c0 46.250667 37.888 84.096 84.096 84.096h473.6a84.394667 84.394667 0 0 0 84.138667-84.053333V169.386667A84.352 84.352 0 0 0 643.072 85.333333z m-214.570667 257.194667c0-32.682667 26.752-59.434667 59.434667-59.434667h14.933333c32.64 0 59.392 26.752 59.392 59.434667s-26.752 59.434667-59.434666 59.434667h-14.890667a59.605333 59.605333 0 0 1-59.434667-59.434667z m-248.746666-66.602667c0-7.253333 5.930667-13.226667 13.226666-13.226666h130.218667c7.253333 0 13.226667 5.973333 13.226667 13.226666V388.693333c0 7.296-5.973333 13.226667-13.226667 13.226667h-130.133333a13.226667 13.226667 0 0 1-13.226667-13.226667V275.925333h-0.085333z m456.96 427.093334a16.042667 16.042667 0 0 1-16.042667 16H195.754667a16.042667 16.042667 0 0 1-16-16v-37.674667c0-8.874667 7.168-16.042667 16-16.042667h424.917333c8.832 0 16.042667 7.168 16.042667 16.042667v37.674667z m0-144.298667a16.042667 16.042667 0 0 1-16.042667 16.042667H195.754667a16.042667 16.042667 0 0 1-16-16.042667v-37.674667c0-8.832 7.168-16 16-16h424.917333c8.832 0 16.042667 7.168 16.042667 16v37.674667z" fill="#0449a5" p-id="38597"></path></svg>