<?xml version="1.0" standalone="no"?><!DOCTYPE svg PUBLIC "-//W3C//DTD SVG 1.1//EN" "http://www.w3.org/Graphics/SVG/1.1/DTD/svg11.dtd"><svg t="1742531266606" class="icon" viewBox="0 0 1024 1024" version="1.1" xmlns="http://www.w3.org/2000/svg" p-id="7117" xmlns:xlink="http://www.w3.org/1999/xlink" width="200" height="200"><path d="M986.5216 486.6048l-90.5216-232.0384c-4.7104-12.288-15.36-21.0944-28.2624-23.552-7.168-1.4336-14.336-0.8192-21.0944 1.8432L113.0496 518.7584c-19.6608 7.5776-29.2864 29.9008-21.7088 49.3568l90.5216 232.0384c4.7104 12.288 15.36 21.0944 28.2624 23.552 7.168 1.4336 14.336 0.8192 21.0944-1.8432l733.5936-285.9008c9.4208-3.6864 16.9984-10.8544 21.0944-20.2752 4.096-9.216 4.3008-19.6608 0.6144-29.0816z m-30.5152 26.624L222.4128 799.3344c-2.4576 1.024-5.12 1.2288-7.5776 0.6144-4.7104-0.8192-8.3968-4.096-10.24-8.3968L114.2784 559.3088c-2.6624-6.9632 0.8192-14.9504 7.7824-17.8176l733.5936-285.9008c2.4576-1.024 5.12-1.2288 7.5776-0.6144 4.7104 0.8192 8.3968 4.096 10.24 8.3968l90.5216 232.0384c2.4576 7.168-1.024 15.1552-7.9872 17.8176zM668.4672 858.9312c-63.2832 24.576-131.8912 30.9248-198.4512 17.8176-54.8864-10.6496-107.1104-34.4064-151.3472-68.4032l-26.4192 10.24c27.648 23.1424 58.5728 42.1888 91.9552 56.9344 26.0096 11.4688 53.248 19.8656 80.896 25.3952 20.6848 4.096 41.5744 6.3488 62.464 6.9632 51.2 1.4336 101.5808-7.3728 149.9136-26.0096 48.128-18.8416 91.3408-46.4896 128-82.1248 35.4304-34.6112 63.6928-75.1616 83.5584-120.6272 14.5408-33.3824 24.3712-68.4032 29.0816-104.0384l-26.4192 10.24c-21.2992 123.2896-106.7008 228.1472-223.232 273.6128z m-31.3344-40.3456l19.8656 18.432 2.4576-26.8288 23.552-13.1072-24.7808-10.6496-5.3248-26.4192-17.8176 20.2752-26.8288-3.2768 13.7216 23.1424-11.264 24.576 26.4192-6.144z m134.5536-126.5664l-17.8176-20.2752-5.3248 26.4192-24.7808 10.6496 23.552 13.1072 2.4576 26.8288 19.8656-18.2272 26.2144 5.9392-11.264-24.576 13.7216-23.1424-26.624 3.2768zM440.1152 238.1824l-19.8656-18.2272-2.2528 26.8288-23.3472 13.312 24.7808 10.4448 5.5296 26.4192 17.6128-20.48 26.8288 3.072-13.9264-23.1424 11.0592-24.576-26.4192 6.3488z m-130.6624 123.6992l17.6128 20.48 5.5296-26.4192 24.7808-10.4448-23.3472-13.312-2.2528-26.8288-19.8656 18.2272-26.2144-6.144 11.0592 24.576-13.9264 23.1424 26.624-3.2768z m168.96 466.3296l7.9872 25.8048 15.5648-21.9136 27.0336 0.4096-15.9744-21.7088 8.8064-25.6-25.6 8.6016-21.504-16.1792 0.2048 27.0336-22.1184 15.5648 25.6 7.9872z m120.4224-601.088l-8.192-25.8048-15.36 22.1184-27.0336-0.2048 16.1792 21.504-8.6016 25.6 25.3952-8.8064 21.7088 15.9744-0.4096-27.0336 21.9136-15.7696-25.6-7.5776z m-190.6688-36.4544c63.2832-24.576 131.8912-30.9248 198.4512-17.8176 54.8864 10.6496 107.1104 34.4064 151.3472 68.4032l26.4192-10.24c-27.648-23.1424-58.5728-42.1888-91.9552-56.9344-26.0096-11.4688-53.248-19.8656-80.896-25.3952-20.6848-4.096-41.5744-6.3488-62.464-6.9632-51.2-1.4336-101.7856 7.3728-149.9136 26.2144-48.128 18.8416-91.3408 46.4896-128 82.1248-35.4304 34.6112-63.6928 75.1616-83.5584 120.6272-14.5408 33.3824-24.3712 68.4032-29.0816 104.0384l26.4192-10.24c21.2992-123.4944 106.7008-228.5568 223.232-273.8176z m53.8624 138.24c32.768-12.6976 68.4032-17.2032 103.2192-12.4928l41.3696-16.1792c-7.7824-2.4576-15.7696-4.3008-23.7568-5.9392-43.4176-8.3968-88.2688-4.3008-129.8432 11.8784-49.7664 19.456-90.3168 53.8624-116.9408 99.5328l41.3696-16.1792c22.528-27.0336 51.8144-47.9232 84.5824-60.6208z m152.576 391.7824c-32.768 12.6976-68.608 17.2032-103.2192 12.4928l-41.3696 16.1792c7.7824 2.4576 15.7696 4.3008 23.7568 5.9392 43.4176 8.3968 88.2688 4.3008 129.8432-11.8784 49.7664-19.456 90.3168-53.8624 117.1456-99.5328l-41.3696 16.1792c-22.7328 26.8288-51.8144 47.7184-84.7872 60.6208z m-183.5008-106.9056c-0.6144 0.2048-1.6384 0.2048-2.8672 0.2048-10.24 1.2288-18.2272 2.048-24.1664 2.2528 0.8192 3.6864 2.2528 9.216 4.3008 16.384 0.8192 5.7344 1.8432 10.0352 3.072 12.9024 3.072 14.9504-3.4816 24.7808-19.6608 29.696l-90.112 34.816c-14.336 6.144-23.9616 1.8432-29.0816-12.9024l-19.2512-49.7664 142.5408-55.296-37.6832-97.0752-173.2608 66.9696 8.8064 22.7328 148.6848-57.5488 20.2752 52.4288-118.1696 45.6704-10.4448-27.0336-25.3952 9.8304 40.5504 105.0624c9.0112 23.3472 26.0096 30.1056 51.2 20.48l107.52-41.5744c24.3712-8.192 34.4064-22.7328 30.3104-43.8272-1.8432-10.0352-4.096-21.504-7.168-34.4064z m38.5024-10.0352l25.3952 65.536 23.552-9.216-3.6864-9.6256 120.6272-46.6944 3.6864 9.6256 23.552-9.216-25.3952-65.536-167.7312 65.1264z m39.1168 31.1296l-9.216-23.552 120.6272-46.6944 9.216 23.552-120.6272 46.6944zM487.424 579.7888l158.3104-61.2352-6.3488-16.5888-74.3424 28.8768-5.7344-14.9504 64.7168-24.9856-5.3248-13.9264-64.9216 24.7808-5.7344-14.9504 64.7168-24.9856-5.7344-14.9504-64.7168 24.9856-5.7344-14.9504 70.8608-27.4432-6.144-15.7696-65.536 25.3952c-6.7584-6.7584-14.1312-13.312-22.528-19.456l-22.3232 12.6976c1.8432 1.2288 4.9152 4.096 9.216 8.3968 4.7104 3.4816 7.7824 6.3488 9.216 8.3968l-53.4528 20.6848c1.024-7.7824 1.8432-16.1792 2.4576-24.9856l-25.6 6.7584c-0.6144 27.8528-6.9632 54.8864-18.6368 81.7152 2.2528 2.4576 5.5296 6.5536 9.8304 12.288 3.072 4.3008 5.12 7.3728 6.7584 9.4208 4.3008-9.6256 7.7824-18.8416 10.6496-27.2384l26.0096 67.3792 22.7328-8.8064-2.6624-6.5536z m-34.816-90.112l61.2352-23.7568 5.7344 14.9504-61.2352 23.7568-5.7344-14.9504z m11.4688 29.696l61.2352-23.7568 5.7344 14.9504-61.2352 23.7568-5.7344-14.9504z m11.0592 28.8768l61.2352-23.7568 5.7344 14.9504-61.2352 23.7568-5.7344-14.9504zM755.712 407.552l6.9632-2.6624-1.6384 3.6864c12.288 7.3728 22.9376 12.288 31.9488 14.7456-0.6144 0.2048-1.8432 1.024-4.096 2.6624-10.8544 8.192-20.2752 14.5408-27.8528 18.8416 6.144 3.6864 11.0592 7.7824 14.7456 12.288 19.0464-13.312 31.5392-23.3472 37.6832-29.696 13.312 1.6384 30.5152 0.6144 51.2-2.6624-0.6144-3.072 0-7.9872 1.4336-14.5408-0.4096-2.4576-0.2048-4.3008 0-5.12-14.9504 3.072-27.4432 4.5056-37.4784 4.5056 6.5536-10.6496 11.4688-22.1184 14.7456-34.816l-6.144-15.7696-77.824 30.1056-9.6256 3.6864 5.9392 14.7456z m66.3552-25.8048c-3.072 9.216-7.9872 18.2272-14.7456 26.8288-9.6256-2.2528-19.0464-5.7344-28.0576-10.24l42.8032-16.5888z m-62.464 7.168c11.0592-12.9024 14.1312-24.9856 9.216-35.84l-1.024-2.6624 28.0576-10.8544 3.4816 8.8064c3.6864 9.4208 11.264 11.6736 22.9376 7.168l18.432-7.168-0.6144-1.8432c-1.024-6.3488-1.4336-10.8544-1.2288-13.5168l-12.288 4.7104c-5.5296 2.8672-9.216 1.2288-10.8544-4.9152L808.96 315.392l-65.536 25.3952 4.3008 11.4688c5.3248 10.0352 3.072 19.8656-6.5536 29.696 5.5296 1.8432 11.8784 4.096 18.432 6.9632z m124.7232 65.3312l-93.5936 36.2496-5.3248-13.9264 63.0784-24.3712-6.144-15.7696-113.664 44.032c2.048-4.9152 3.2768-9.6256 3.4816-14.336l-22.9376 5.9392c-3.4816 16.7936-9.6256 31.5392-18.0224 44.2368l16.5888 6.5536-33.1776 12.9024 6.3488 16.5888 93.5936-36.2496 6.7584 17.408-48.128 18.6368-4.7104-12.288-21.9136 8.3968 10.8544 28.0576 140.9024-54.4768 2.4576 6.144 22.7328-8.8064-13.1072-34.2016-22.7328 8.8064 4.7104 12.288-48.128 18.6368-6.7584-17.408 93.5936-36.2496-6.7584-16.7936z m-172.2368 66.7648c4.5056-7.168 7.9872-13.9264 10.24-20.0704l40.1408-15.5648 5.3248 13.9264-55.7056 21.7088z m-29.696-42.8032l78.6432-30.5152-16.5888-42.8032-93.5936 36.2496 6.3488 16.5888c6.9632 16.1792 7.7824 32.5632 2.8672 49.152 1.6384 0.8192 4.5056 2.048 8.3968 3.6864 4.7104 1.6384 8.192 2.8672 10.6496 3.8912 4.3008-15.5648 5.3248-27.648 3.2768-36.2496z m49.7664-53.4528l6.144 15.7696-21.9136 8.3968-6.144-15.7696 21.9136-8.3968z m-58.5728 22.7328l21.9136-8.3968 6.144 15.7696-21.9136 8.3968c-0.8192-2.2528-1.8432-4.7104-2.6624-6.9632l-3.4816-8.8064z m-47.3088-39.1168l46.2848-18.0224 4.3008 11.4688-38.5024 14.9504 5.3248 13.9264 97.0752-37.6832-5.3248-13.9264-37.6832 14.5408-4.3008-11.4688 43.8272-16.9984-5.7344-14.9504-43.8272 16.9984-4.7104-12.288-21.0944 8.192 4.7104 12.288-46.2848 18.0224 5.9392 14.9504z" fill="" p-id="7118"></path></svg>