<?xml version="1.0" standalone="no"?><!DOCTYPE svg PUBLIC "-//W3C//DTD SVG 1.1//EN" "http://www.w3.org/Graphics/SVG/1.1/DTD/svg11.dtd"><svg t="1742533596715" class="icon" viewBox="0 0 1024 1024" version="1.1" xmlns="http://www.w3.org/2000/svg" p-id="37523" xmlns:xlink="http://www.w3.org/1999/xlink" width="200" height="200"><path d="M921.391104 396.864512c-49.143808-49.143808-111.424512-79.931392-179.0208-89.358336V201.196544h-0.301056c0-0.702464 0.101376-1.605632 0.101376-2.308096 0-33.696768-35.3024-62.180352-101.896192-82.338816-59.374592-17.951744-137.90208-27.881472-221.145088-27.881472-83.342336 0-161.972224 9.928704-221.244416 28.081152-66.593792 20.258816-101.896192 48.7424-101.896192 82.33984 0 2.307072 0.100352 4.61312 0.602112 6.920192v76.923904c-9.52832 3.910656-20.6592 8.925184-31.491072 15.043584C28.594176 318.437376 10.140672 341.705728 10.24 366.978048c0 2.307072 0.100352 4.61312 0.602112 6.921216h-0.100352v118.042624h-0.301056c0 16.648192 7.3216 32.192512 21.9648 46.134272 14.642176 13.83936 36.406272 25.674752 62.88384 35.50208v98.989056h-0.301056c0 17.148928 7.923712 33.396736 23.86944 48.140288 52.050944 48.539648 186.041344 76.121088 295.860224 76.121088 7.522304 0 15.043584-0.099328 22.365184-0.402432 11.232256 16.45056 24.170496 32.094208 38.41024 46.536704 59.575296 59.573248 138.703872 92.368896 222.949376 92.368896 84.24448 0 163.475456-32.795648 222.948352-92.368896C980.963328 783.389696 1013.76 704.259072 1013.76 620.014592c0-84.245504-32.796672-163.375104-92.368896-223.15008M131.09248 304.69632V251.94496c16.648192 11.131904 38.914048 20.96128 66.794496 29.38368 59.373568 18.054144 138.002432 28.082176 221.244416 28.082176 83.341312 0 161.970176-9.928704 221.244416-28.082176 28.181504-8.5248 50.545664-18.451456 67.395584-29.786112v53.35552c-3.009536-0.101376-6.217728-0.101376-9.227264-0.101376-84.245504 0-163.475456 32.796672-222.949376 92.368896-5.31456 5.315584-10.529792 11.0336-15.643648 16.748544-139.60704 6.119424-279.814144-30.790656-319.227904-68.39808-5.81632-5.516288-8.927232-10.530816-8.927232-14.342144h-0.702464v-23.969792c0.099328-0.099328 0.401408-0.099328 0.601088-0.099328l-0.602112-2.408448m76.722176-154.949632c56.264704-17.050624 131.181568-26.476544 211.314688-26.476544 80.032768 0 155.049984 9.42592 211.314688 26.476544 57.065472 17.350656 77.324288 37.308416 77.324288 49.14176 0 11.834368-20.258816 31.793152-77.324288 49.143808-56.264704 17.050624-131.181568 26.476544-211.314688 26.476544-80.032768 0-155.049984-9.42592-211.314688-26.476544-57.065472-17.350656-77.325312-37.30944-77.325312-49.143808 0-11.833344 20.25984-31.791104 77.325312-49.14176M96.190464 320.644096v10.22976h0.702464c0 13.83936 6.619136 27.177984 19.657728 39.614464 47.838208 45.53216 182.227968 78.429184 311.706624 78.629888-104.203264 12.534784-185.238528 3.008512-235.384832-7.220224-58.770432-12.136448-109.016064-32.69632-134.38976-54.960128-10.228736-8.927232-13.83936-16.34816-13.83936-20.058112 0.09728-15.246336 23.163904-32.69632 51.547136-46.235648M56.173568 512.802816c-6.319104-6.1184-9.929728-12.034048-11.031552-17.750016v-74.418176c31.39072 23.268352 81.839104 43.025408 140.811264 55.160832 45.129728 9.227264 93.771776 13.83936 144.11776 13.83936a854.65088 854.65088 0 0 0 82.639872-4.011008c-13.13792 28.081152-22.06208 57.76896-26.575872 88.758272-65.289216 3.208192-137.399296-1.304576-198.176768-12.234752-63.58528-11.433984-110.321664-29.085696-131.784704-49.344512m327.553024 128.673792c-87.453696 2.20672-169.49248-21.963776-215.728128-47.839232 55.161856 11.132928 118.044672 16.648192 176.914432 16.648192 13.038592 0 25.675776-0.301056 38.31296-0.903168-0.101376 3.510272-0.101376 7.119872-0.101376 10.530816-0.19968 7.222272 0.1024 14.442496 0.602112 21.563392m-241.401856 53.756928c-8.123392-7.522304-12.2368-14.743552-12.737536-21.663744h0.301056v-63.284224c25.974784 19.25632 65.789952 36.708352 111.524864 48.841728 31.89248 8.5248 77.927424 17.149952 130.980864 17.149952 5.214208 0 10.428416-0.099328 15.643648-0.301056a306.802688 306.802688 0 0 0 28.783616 85.950464c-109.717504 0.802816-233.578496-28.48256-274.496512-66.69312M698.442752 900.73088c-154.749952 0-280.61696-125.865984-280.61696-280.614912 0-154.752 125.867008-280.61696 280.61696-280.61696 154.748928 0 280.615936 125.766656 280.615936 280.516608 0 154.750976-125.867008 280.715264-280.615936 280.715264m0 0z" p-id="37524" fill="#0449a5"></path><path d="M790.309888 443.600896l-55.760896 102.898688c-14.84288 27.881472-23.969792 46.435328-27.280384 55.662592h-1.002496c-9.828352-22.36416-37.609472-75.118592-83.243008-158.56128h-52.451328l97.685504 167.78752h-80.032768v37.108736h93.973504v51.049472h-93.973504v37.608448h93.973504v74.416128h46.536704v-74.41408h90.663936v-37.61152h-90.667008v-51.147776h90.663936V611.38944h-78.027776l98.586624-167.78752h-49.644544v-0.001024m0 0z" p-id="37525" fill="#0449a5"></path></svg>